<?xml version="1.0" standalone="no"?>
<!DOCTYPE svg PUBLIC "-//W3C//DTD SVG 20010904//EN"
 "http://www.w3.org/TR/2001/REC-SVG-20010904/DTD/svg10.dtd">
<svg version="1.0" xmlns="http://www.w3.org/2000/svg"
 width="512.000000pt" height="512.000000pt" viewBox="0 0 512.000000 512.000000"
 preserveAspectRatio="xMidYMid meet">

<g transform="translate(0.000000,512.000000) scale(0.100000,-0.100000)"
fill="#000000" stroke="none">
<path d="M2451 5104 c-80 -21 -147 -62 -201 -121 -154 -169 -154 -414 1 -578
57 -60 112 -96 177 -115 l42 -13 0 -264 0 -263 -766 0 c-844 0 -819 2 -953
-63 -92 -45 -207 -159 -254 -253 -59 -117 -67 -165 -67 -403 l0 -211 -43 0
c-169 0 -292 -72 -356 -209 l-26 -56 0 -340 0 -340 28 -57 c40 -82 120 -152
204 -178 36 -11 93 -20 129 -20 l64 0 0 -211 c0 -234 8 -286 63 -399 39 -79
143 -192 220 -238 67 -41 172 -77 249 -86 l57 -7 3 -316 3 -315 29 -25 c21
-18 38 -24 60 -21 20 3 209 123 531 338 l500 335 1030 5 1030 5 65 22 c199 68
354 233 404 429 12 47 16 113 16 273 l0 211 64 0 c36 0 93 9 129 20 84 26 164
96 204 178 l28 57 0 340 0 340 -26 56 c-64 137 -187 209 -356 209 l-43 0 0
211 c0 239 -8 289 -68 404 -48 93 -163 209 -252 252 -132 65 -107 63 -952 63
l-768 0 0 263 0 264 43 12 c65 19 117 54 175 115 156 165 157 410 2 579 -104
114 -268 162 -419 121z m191 -170 c103 -35 170 -129 171 -239 0 -80 -25 -136
-83 -188 -101 -91 -239 -91 -340 0 -58 52 -83 108 -83 188 1 175 170 296 335
239z m1639 -1396 c93 -46 158 -112 202 -206 l32 -67 0 -1045 0 -1045 -32 -68
c-38 -80 -114 -163 -183 -201 -103 -56 -98 -56 -1180 -56 -940 0 -997 -1
-1035 -19 -22 -10 -225 -142 -452 -294 -226 -152 -418 -280 -427 -283 -14 -6
-16 18 -16 238 0 238 -1 246 -23 279 -31 47 -83 79 -126 79 -62 0 -171 28
-220 56 -95 55 -166 141 -201 243 -20 61 -20 70 -18 1089 l3 1027 32 67 c53
113 138 188 258 230 47 16 154 17 1681 15 l1630 -2 75 -37z m-3853 -1320 l2
-428 -57 0 c-74 0 -132 26 -169 76 l-29 37 -3 301 c-3 296 -2 302 20 345 37
72 93 101 188 98 l45 -2 3 -427z m4431 408 c37 -20 68 -59 82 -105 7 -23 9
-140 7 -327 l-3 -291 -29 -37 c-37 -50 -95 -76 -168 -76 l-58 0 0 423 c0 233
3 427 8 431 11 12 128 -1 161 -18z"/>
<path d="M1406 2881 c-122 -40 -232 -147 -273 -264 -24 -70 -24 -213 0 -284
57 -163 227 -283 401 -283 120 0 218 41 303 126 214 214 136 586 -147 696 -79
30 -206 34 -284 9z m215 -166 c95 -34 157 -113 166 -212 10 -108 -35 -197
-124 -250 -41 -24 -59 -28 -123 -28 -110 0 -189 48 -236 141 -27 55 -26 165 3
219 62 118 194 172 314 130z"/>
<path d="M3458 2881 c-119 -38 -203 -112 -261 -231 -30 -61 -32 -71 -32 -175
0 -99 3 -116 28 -169 55 -119 146 -199 266 -236 259 -81 525 98 548 370 17
204 -116 393 -312 444 -78 21 -166 19 -237 -3z m235 -176 c91 -43 141 -126
142 -230 0 -59 -5 -78 -30 -123 -68 -124 -229 -169 -350 -97 -184 107 -159
384 41 460 50 19 148 14 197 -10z"/>
<path d="M2104 1870 c-30 -12 -54 -49 -54 -83 0 -41 85 -126 170 -171 103 -54
201 -76 340 -76 199 0 357 57 459 165 59 62 66 97 27 141 -38 45 -85 39 -144
-18 -85 -83 -187 -118 -342 -118 -153 0 -257 35 -340 115 -48 47 -82 60 -116
45z"/>
</g>
</svg>
